# xmcd
#
# Track frame offsets: 
#        150
#        9978
#        19599
#        30419
#        42634
#        52725
#        64431
#        75634
#        87128
#        98983
#        110644
#        121331
#        131885
#        142278
#        152541
#        167890
#        179259
#        190447
#        201745
#        211387
#        221598
#        232816
#        242163
#        251737
#
# Disc length: 3413 seconds
#
# Revision: 0
# Processed by: cddbd v1.5.2PL0 Copyright (c) Steve Scherf et al.
# Submitted via: ExactAudioCopy v0.99pb4
#
DISCID=5d0d5318
DTITLE=Various Artist - Feline Groovy
DYEAR=2008
DGENRE=Pop
TTITLE0=The Coasters - Three Cool Cats
TTITLE1=Rene Hall - Cleo
TTITLE2=Paul Ott - Kitty Kat
TTITLE3=Mongo Santamaria - El Pussy Cat
TTITLE4=The Dodgers - Cat Hop
TTITLE5=Lu Ann Simms - The Siamese Cat Song
TTITLE6=David Thorne - The Alley Cat Song
TTITLE7=Dave "Baby" Cortez - Cat Nip
TTITLE8=The Morgan James Duo - Sweet Pussycat
TTITLE9=Little Williw John - Leave My Kitten Alone
TTITLE10=Peggy Lee - Sneakin' Up On You
TTITLE11=Eddie and Ernie - The Cat
TTITLE12=Tom Jones - What's New Pussycat?
TTITLE13=Norma Tanega - Walkin' My Cat Named Dog
TTITLE14=Jimmy Smith - The Cat
TTITLE15=Sonny James - The Cat Came Back
TTITLE16=Noreen Corcoran - Love Kitten
TTITLE17=The Romancers - House Cat
TTITLE18=Lee Dorsey - The Kitty Kat Song
TTITLE19=Buddy Greco - That Darned Cat
TTITLE20=Lamie Ross with Kenny Rice and Leo's Five - Let's Do The Cat
TTITLE21=Charles Brown - If You Play With Cats
TTITLE22=The Rooftop Singers - Tom Cat
TTITLE23=Top Cat Orchestra and Chorus - Top Cat Theme Song
EXTD=
EXTT0=
EXTT1=
EXTT2=
EXTT3=
EXTT4=
EXTT5=
EXTT6=
EXTT7=
EXTT8=
EXTT9=
EXTT10=
EXTT11=
EXTT12=
EXTT13=
EXTT14=
EXTT15=
EXTT16=
EXTT17=
EXTT18=
EXTT19=
EXTT20=
EXTT21=
EXTT22=
EXTT23=
PLAYORDER=
